<?xml version="1.0" encoding="utf-8"?>

<!DOCTYPE svg PUBLIC "-//W3C//DTD SVG 1.1//EN" "http://www.w3.org/Graphics/SVG/1.1/DTD/svg11.dtd">
<!-- Uploaded to: SVG Repo, www.svgrepo.com, Generator: SVG Repo Mixer Tools -->
<svg version="1.1" id="Layer_1" xmlns:sketch="http://www.bohemiancoding.com/sketch/ns"
	 xmlns="http://www.w3.org/2000/svg" xmlns:xlink="http://www.w3.org/1999/xlink"  width="800px" height="800px"
	 viewBox="0 0 64 60" enable-background="new 0 0 64 60" xml:space="preserve">
<title>Law</title>
<desc>Created with Sketch.</desc>
<g id="Page-1" sketch:type="MSPage">
	<g id="Law" transform="translate(1.000000, 1.000000)" sketch:type="MSLayerGroup">
		<path id="Shape_2_" sketch:type="MSShapeGroup" fill="none" stroke="#6B6C6E" stroke-width="2" stroke-linejoin="round" d="
			M52.9,9h-20V5.9c0-1.1-0.9-5.9-2-5.9s-2,4.8-2,5.9V9h-20c-1.7,0-3,1.3-3,2.9s1.3,2.9,3,2.9s3-1.3,3-2.9c0-0.2,8.5,3.8,16.9,4v32.4
			c-4.7,0.2-8.3,1.9-8.3,3.2c0,0.2,0.1,0.5,0.3,0.7H17c-0.8,0-1.4,0.6-1.4,1.3v3.2c0,0.7,0.6,1.3,1.4,1.3h4.1c0.8,0,1.4-0.6,1.4-1.3
			V56h16.4v0.7c0,0.7,0.6,1.3,1.4,1.3h4.1c0.8,0,1.4-0.6,1.4-1.3v-3.2c0-0.7-0.6-1.3-1.4-1.3h-3.8c0.2-0.2,0.3-0.4,0.3-0.7
			c0-1.3-3.6-3-8.3-3.2V15.9c8.5-0.1,16.9-4.1,16.9-4c0,1.6,1.3,2.9,3,2.9s3-1.3,3-2.9C55.9,10.3,54.6,9,52.9,9L52.9,9z"/>
		<path id="Shape_3_" sketch:type="MSShapeGroup" fill="none" stroke="#6B6C6E" stroke-width="2" stroke-linejoin="round" d="
			M0.1,41L9,14.9l9,27"/>
		<path id="Shape_4_" sketch:type="MSShapeGroup" fill="none" stroke="#6B6C6E" stroke-width="2" stroke-linejoin="round" d="M44,42
			l8.9-27.1l9.1,28"/>
		<path id="Shape" sketch:type="MSShapeGroup" fill="none" stroke="#6B6C6E" stroke-width="2" stroke-linejoin="round" d="M18,41.4
			c0,1.9-4,3.6-9,3.6s-9-1.7-9-3.6C0,39.5,18,39.5,18,41.4L18,41.4z"/>
		<path id="Shape_1_" sketch:type="MSShapeGroup" fill="none" stroke="#6B6C6E" stroke-width="2" stroke-linejoin="round" d="
			M61.9,42.4c0,1.9-4,3.6-9,3.6s-9-1.7-9-3.6C44,40.5,61.9,40.5,61.9,42.4L61.9,42.4z"/>
	</g>
</g>
</svg>